<?xml version="1.0" encoding="UTF-8" standalone="no"?>
<!-- Created with Inkscape (http://www.inkscape.org/) -->

<svg
   xmlns:dc="http://purl.org/dc/elements/1.1/"
   xmlns:cc="http://creativecommons.org/ns#"
   xmlns:rdf="http://www.w3.org/1999/02/22-rdf-syntax-ns#"
   xmlns:svg="http://www.w3.org/2000/svg"
   xmlns="http://www.w3.org/2000/svg"
   xmlns:sodipodi="http://sodipodi.sourceforge.net/DTD/sodipodi-0.dtd"
   xmlns:inkscape="http://www.inkscape.org/namespaces/inkscape"
   width="210mm"
   height="297mm"
   viewBox="0 0 210 297"
   version="1.1"
   id="svg8"
   inkscape:version="0.92.4 (5da689c313, 2019-01-14)"
   sodipodi:docname="drawing.svg">
  <defs
     id="defs2" />
  <sodipodi:namedview
     id="base"
     pagecolor="#ffffff"
     bordercolor="#666666"
     borderopacity="1.0"
     inkscape:pageopacity="0.0"
     inkscape:pageshadow="2"
     inkscape:zoom="0.98994949"
     inkscape:cx="393.30914"
     inkscape:cy="712.33158"
     inkscape:document-units="mm"
     inkscape:current-layer="layer1"
     showgrid="false"
     inkscape:window-width="1920"
     inkscape:window-height="1017"
     inkscape:window-x="1432"
     inkscape:window-y="-8"
     inkscape:window-maximized="1" />
  <metadata
     id="metadata5">
    <rdf:RDF>
      <cc:Work
         rdf:about="">
        <dc:format>image/svg+xml</dc:format>
        <dc:type
           rdf:resource="http://purl.org/dc/dcmitype/StillImage" />
        <dc:title></dc:title>
      </cc:Work>
    </rdf:RDF>
  </metadata>
  <g
     inkscape:label="Layer 1"
     inkscape:groupmode="layer"
     id="layer1">
    <path
       inkscape:export-ydpi="400"
       inkscape:export-xdpi="400"
       inkscape:connector-curvature="0"
       id="path869"
       d="m 15.915216,106.41471 c -6.2397208,-0.29464 -9.2634907,-0.90487 -10.2616007,-2.07091 -0.50785,-0.59331 -0.2008,-2.85571 0.48695,-3.58777 0.5336,-0.568 0.53882,-0.62665 0.11344,-1.275868 -0.90213,-1.37683 -0.4978,-2.83983 1.60729,-5.81574 1.0193899,-1.441084 1.1545099,-2.511164 0.51142,-4.050284 -0.42085,-1.00724 -0.34087,-1.25422 0.7124499,-2.20006 1.1284498,-1.0133 3.4218608,-6.53435 4.3977508,-10.58695 0.82644,-3.43197 1.37396,-8.38393 1.37396,-12.42662 v -3.64682 l -0.82682,-0.16536 c -0.45475,-0.091 -1.2126,-0.16537 -1.68411,-0.16537 -0.993321,0 -2.251571,-0.87977 -2.251571,-1.57431 0,-0.61708 0.43921,-0.96646 1.5875,-1.26281 0.662731,-0.17104 0.934091,-0.39328 0.954341,-0.78162 0.0444,-0.85179 0.33975,-1.14376 1.15692,-1.14376 0.63251,0 0.78694,-0.1358 0.93834,-0.82513 0.11179,-0.50897 0.0485,-1.07315 -0.16519,-1.47243 -0.25328,-0.47325 -0.27001,-0.76717 -0.0622,-1.0931 0.22703,-0.35614 -0.16123,-1.33653 -1.93045,-4.87463 -1.218051,-2.43585 -2.214641,-4.61025 -2.214641,-4.83198 0,-0.45235 2.244611,-1.5356 3.778001,-1.82326 0.71086,-0.13336 0.9845,-0.31944 0.9845,-0.66948 0,-0.65215 0.4969,-1.02258 1.74051,-1.29754 l 1.03762,-0.22942 -0.71305,-0.34089 c -1.091,-0.52158 -1.15894,-1.0886 -0.2299,-1.91869 0.44586,-0.39838 0.81065,-0.78553 0.81065,-0.86034 0,-0.0748 -0.65484,-0.13602 -1.4552,-0.13602 h -1.45521 l 0.004,-1.91823 c 0.002,-1.05503 0.0915,-2.05248 0.19844,-2.21656 0.10691,-0.16408 0.7004,-0.3829 1.31887,-0.48628 0.61846,-0.10337 1.12447,-0.2591 1.12447,-0.34607 0,-0.087 -0.2639,-0.43905 -0.58645,-0.78239 -0.77266,-0.82245 -0.41642,-1.40279 1.14192,-1.86031 2.01729,-0.59226 4.61196,-0.50717 7.58047,0.24858 1.26499,0.32205 1.46543,0.88527 0.59531,1.67271 -0.77579,0.70209 -0.67054,0.83912 0.79375,1.03337 l 1.32292,0.17549 v 2.23984 2.23985 l -1.65365,0.009 -1.65364,0.009 0.98909,0.80805 c 0.82152,0.67116 0.94366,0.89294 0.72095,1.30908 -0.14747,0.27557 -0.59257,0.6736 -0.98909,0.88453 l -0.72095,0.3835 1.13409,0.18598 c 1.09311,0.17927 1.85435,0.88385 1.52706,1.41342 -0.0778,0.12588 0.86911,0.5576 2.10424,0.95938 1.23513,0.40178 2.39042,0.9049 2.5673,1.11803 0.34293,0.4132 0.42386,0.23548 -3.06317,6.72685 -1.32797,2.47211 -1.47659,2.89307 -1.18584,3.35863 0.27725,0.44395 0.25728,0.61531 -0.12033,1.03256 -0.68038,0.75181 -0.17504,1.99061 0.9468,2.32101 0.70647,0.20806 0.84422,0.37266 0.80486,0.9617 -0.0401,0.59961 0.084,0.7386 0.79375,0.88934 1.03136,0.21904 1.76728,0.83434 1.76728,1.4776 0,0.7607 -1.17602,1.33715 -3.03186,1.48612 l -1.70882,0.13717 -0.18026,1.20207 c -0.24722,1.64859 0.0976,8.57833 0.59485,11.9564 0.76781,5.21546 3.69516,13.26046 5.09839,14.01144 0.66163,0.3541 0.68041,0.70584 0.12789,2.39507 -0.41147,1.25801 -0.40541,1.3302 0.22766,2.71301 0.35771,0.781344 1.02419,1.936644 1.48106,2.567334 0.950342,1.31191 1.115734,2.92385 0.404227,3.93967 -0.403897,0.576638 -0.389907,0.646978 0.264583,1.330118 0.752943,0.7859 0.82613,1.25368 0.423127,2.70449 -0.294084,1.0587 -0.977501,1.92695 -1.584177,2.01263 -0.21828,0.0308 -1.17078,0.18557 -2.11667,0.34386 -0.94588,0.15829 -3.92245,0.34671 -6.61458,0.41872 -2.69214,0.072 -5.13292,0.15609 -5.42396,0.18687 -0.29104,0.0308 -2.25557,-0.0256 -4.36563,-0.12521 z"
       style="fill:#000000;fill-opacity:1;stroke:#000000;stroke-width:1.00000003;stroke-miterlimit:4;stroke-dasharray:none;stroke-opacity:1" />
    <path
       style="fill:#ffffff;stroke:#000000;stroke-width:1;stroke-miterlimit:4;stroke-dasharray:none;stroke-opacity:1;fill-opacity:1"
       d="m 186.08985,203.61221 c -3.7358,-0.362 -4.49121,-0.62927 -4.96179,-1.7555 -0.57156,-1.36796 -0.51543,-3.07454 0.12006,-3.64964 0.47748,-0.43212 0.48516,-0.51435 0.10262,-1.09818 -0.7499,-1.14449 -0.27073,-2.34313 1.7516,-4.38156 1.76512,-1.77917 2.39215,-3.00393 2.39215,-4.67253 0,-0.29286 0.22994,-0.57356 0.53525,-0.6534 1.08197,-0.28295 2.61798,-4.79844 3.04329,-8.94652 l 0.1793,-1.74872 -1.60784,-0.18191 c -2.95518,-0.33434 -3.17189,-1.50577 -0.60889,-3.29139 l 1.6734,-1.16586 -0.92204,-0.76002 c -1.83819,-1.51519 -2.59428,-4.49591 -1.94678,-7.67474 0.77321,-3.79603 6.03213,-5.80598 10.04899,-3.84071 1.92194,0.94032 2.78666,2.30676 3.17316,5.01425 0.37767,2.64563 -0.17357,4.53102 -1.80038,6.15783 l -1.17057,1.17058 1.71301,1.08186 c 1.76205,1.11284 1.89029,1.32747 1.4636,2.44973 -0.21866,0.57514 -0.46326,0.6789 -1.98437,0.8418 -1.99829,0.214 -1.92541,0.0395 -1.44862,3.46753 0.45847,3.2963 1.47163,6.15635 2.52152,7.11801 0.69522,0.6368 0.8963,1.03107 0.8963,1.75746 0,1.10497 0.81809,2.42644 2.69071,4.34634 1.44828,1.48485 1.8959,2.91783 1.27426,4.07937 -0.27473,0.51334 -0.25812,0.66346 0.10257,0.92721 0.25304,0.18502 0.43038,0.6897 0.43038,1.2248 0,0.50055 0.11516,1.02526 0.25592,1.16602 0.29323,0.29323 0.065,1.43741 -0.28678,1.43741 -0.12855,0 -0.23373,0.28377 -0.23373,0.6306 0,0.42597 -0.19318,0.68712 -0.59531,0.80476 -0.98045,0.28683 -14.16347,0.4007 -16.80099,0.14513 z"
       id="path865"
       inkscape:export-xdpi="400"
       inkscape:export-ydpi="400" />
    <path
       style="fill:#ffffff;fill-opacity:1;stroke:#000000;stroke-width:1;stroke-miterlimit:4;stroke-dasharray:none;stroke-opacity:1"
       d="m 69.716458,101.08124 c -0.582083,-0.0468 -1.922317,-0.22231 -2.978298,-0.39012 -1.733476,-0.27548 -1.971196,-0.38801 -2.447396,-1.158519 -0.716711,-1.15966 -0.703992,-2.95014 0.02648,-3.7277 l 0.55391,-0.58961 -0.589425,-0.79724 c -0.903187,-1.22162 -0.640358,-2.96831 0.762833,-5.0696 1.1927,-1.78608 1.346893,-2.686 0.782812,-4.56872 -0.301577,-1.00659 -0.282336,-1.08656 0.39051,-1.62306 1.203073,-0.9593 3.143178,-6.53837 4.293472,-12.34654 0.752515,-3.79966 1.35695,-11.33666 1.083162,-13.50648 l -0.187494,-1.48593 -1.592435,-0.1444 c -1.744045,-0.15814 -2.611672,-0.70504 -2.611672,-1.64624 0,-0.65939 0.674597,-1.35446 1.453168,-1.49727 0.3458,-0.0634 0.573736,-0.36863 0.662617,-0.88721 0.113795,-0.66395 0.272984,-0.80379 0.994225,-0.87343 0.806701,-0.0779 0.858739,-0.14508 0.858739,-1.10886 0,-0.56428 -0.126201,-1.10396 -0.280445,-1.19928 -0.177186,-0.10951 -0.216503,-0.68511 -0.106785,-1.56327 0.226441,-1.81236 -0.391565,-4.23448 -1.657112,-6.49466 -2.316766,-4.13757 -2.312723,-4.07997 -0.312629,-4.45363 0.656209,-0.12259 2.333498,-0.87441 3.727309,-1.67071 2.391968,-1.36656 2.512566,-1.47669 2.148666,-1.96225 -0.541261,-0.72222 -0.295966,-2.66443 0.427937,-3.38834 0.4124,-0.4124 0.892503,-0.56567 1.771859,-0.56567 1.00363,0 1.317331,0.12921 1.868048,0.76946 0.532479,0.61904 0.640241,0.98109 0.551262,1.85208 -0.06083,0.59544 -0.186254,1.26122 -0.278718,1.4795 -0.223472,0.52755 4.469493,2.82321 6.22967,3.04737 1.13115,0.14405 1.256771,0.2279 1.256771,0.83887 0,0.37335 -0.462021,1.52692 -1.02671,2.56348 -1.658213,3.04386 -2.583389,6.86242 -1.87071,7.72114 0.253029,0.30489 0.259032,0.5513 0.0259,1.06297 -0.166915,0.36633 -0.303483,1.06964 -0.303483,1.56289 0,0.81842 0.07519,0.90408 0.859896,0.97974 0.756105,0.0729 0.869902,0.1867 0.942806,0.94281 0.06867,0.71219 0.193651,0.85989 0.727604,0.85989 0.723468,0 1.703027,0.84394 1.703027,1.46724 0,0.8103 -1.233699,1.70776 -2.347584,1.70776 -1.865971,0 -1.885995,0.0306 -1.883579,2.87258 0.0071,8.35623 3.578957,22.05459 6.356961,24.37951 0.729861,0.61082 0.769889,0.73221 0.522906,1.58575 -0.537501,1.85754 -0.171074,3.64192 1.011767,4.92695 0.988203,1.07358 1.366612,1.84727 1.366612,2.79413 0,1.09567 -0.468283,2.33483 -0.88234,2.33483 -0.147529,0 0.0204,0.30713 0.3732,0.6825 0.547875,0.58295 0.635728,0.92062 0.602321,2.3151 -0.05594,2.33501 -0.08419,2.48639 -0.533632,2.8594 -0.473602,0.393059 -0.172289,0.343629 -5.316651,0.872049 -3.621807,0.37202 -13.726763,0.51404 -17.129355,0.24074 z"
       id="path863"
       inkscape:connector-curvature="0"
       inkscape:export-xdpi="400"
       inkscape:export-ydpi="400" />
    <path
       style="fill:#ffffff;stroke:#000000;stroke-width:1;stroke-miterlimit:4;stroke-dasharray:none;stroke-opacity:1;fill-opacity:1"
       d="m 83.7622,203.35747 c -4.566577,-0.3734 -7.540625,-1.06082 -7.540625,-1.74294 0,-0.207 -0.09297,-0.37636 -0.206608,-0.37636 -0.340228,0 -0.392478,-3.69799 -0.05795,-4.10108 0.217112,-0.2616 0.222235,-0.5107 0.01834,-0.8917 -0.673293,-1.25805 -0.178633,-2.72726 1.436844,-4.26763 1.36308,-1.29972 1.719791,-2.11824 1.719791,-3.94631 0,-1.29675 0.09375,-1.6415 0.506455,-1.86237 1.073957,-0.57477 2.147546,-7.5814 2.130248,-13.90278 -0.0141,-5.14884 -0.403879,-8.5837 -1.041485,-9.17772 -0.295288,-0.27511 -0.536885,-0.79286 -0.536885,-1.15057 0,-0.37381 -0.400711,-1.09393 -0.942276,-1.69338 -0.645022,-0.71396 -0.97496,-1.36107 -1.045885,-2.05129 -0.05698,-0.55456 -0.224596,-1.90126 -0.372469,-2.99267 -0.427821,-3.15757 -0.371224,-4.70294 0.177818,-4.85544 0.254662,-0.0707 3.634518,-0.20817 7.510787,-0.30542 4.96615,-0.12459 7.10027,-0.0919 7.22551,0.11077 0.23212,0.37558 1.28138,0.36981 1.66032,-0.009 0.36777,-0.36777 8.68539,-0.20711 9.02513,0.17432 0.23122,0.25959 -0.11215,6.01039 -0.40225,6.73698 -0.0871,0.21828 -0.13445,0.70475 -0.10511,1.08103 0.0348,0.44589 -0.26339,1.06329 -0.85615,1.77278 -0.50023,0.59873 -0.98819,1.50802 -1.08436,2.02062 -0.0962,0.51261 -0.35374,1.03214 -0.57239,1.1545 -0.644323,0.36058 -1.027943,7.68619 -0.661093,12.6242 0.361343,4.86389 1.362773,9.6264 2.134813,10.15258 0.4097,0.27923 0.53261,0.65687 0.53261,1.63642 0,1.76769 0.32992,2.47715 1.98163,4.26119 1.56724,1.6928 2.01522,2.94072 1.47853,4.11864 -0.21646,0.47506 -0.22653,0.76543 -0.0333,0.95871 0.41622,0.41621 0.33271,3.36612 -0.11985,4.23385 -0.21661,0.41532 -0.333,0.85358 -0.25864,0.9739 0.15049,0.2435 -0.32297,0.60147 -0.93176,0.70448 -3.98502,0.67431 -15.76265,1.02125 -20.76979,0.61182 z"
       id="path861"
       inkscape:export-xdpi="400"
       inkscape:export-ydpi="400" />
    <path
       style="fill:#ffffff;stroke:#000000;stroke-width:1;stroke-miterlimit:4;stroke-dasharray:none;stroke-opacity:1;fill-opacity:1"
       d="m 157.84553,203.18947 c -2.00079,-0.14627 -6.03827,-0.92905 -6.44371,-1.24929 -1.01281,-0.79999 -1.20378,-4.26371 -0.30357,-5.50612 0.44295,-0.61132 0.45902,-0.74551 0.12276,-1.02459 -0.22391,-0.18583 -0.38694,-0.77626 -0.38694,-1.40136 0,-1.0077 0.14221,-1.21426 2.11793,-3.07645 1.4301,-1.34793 2.11752,-2.18932 2.11667,-2.59078 -8e-4,-0.327 -0.42068,-1.0588 -0.93331,-1.62621 l -0.93204,-1.03167 0.70038,-0.83236 c 0.38521,-0.45779 0.6558,-0.86592 0.60132,-0.90694 -0.0545,-0.041 -0.75392,-0.34729 -1.55428,-0.68061 -0.80036,-0.3333 -1.60404,-0.72601 -1.78594,-0.87267 -0.66762,-0.53829 -0.3024,-1.54992 1.3839,-3.83328 2.61422,-3.5398 6.33287,-8.49289 7.67017,-10.21631 0.66351,-0.8551 1.19854,-1.8295 1.19854,-2.18281 0,-0.56842 -0.12298,-0.64242 -1.12448,-0.67668 -2.06293,-0.0706 -2.97192,0.0821 -3.52278,0.59159 -0.57989,0.53635 -1.11729,0.60907 -2.48274,0.33598 -0.61027,-0.12206 -1.13577,-0.55284 -1.88515,-1.5454 -0.9699,-1.28462 -1.03902,-1.4947 -1.03902,-3.15815 v -1.78198 l 2.86193,-2.82418 c 1.57407,-1.55331 3.23935,-3.37911 3.70064,-4.05735 1.31527,-1.93387 3.43825,-3.66163 4.49922,-3.66163 0.87109,0 0.88375,-0.017 0.83991,-1.12448 -0.0955,-2.41293 -0.0208,-2.84427 0.49256,-2.84427 0.26841,0 0.82653,0.29088 1.24027,0.64639 0.77497,0.66591 1.18214,0.66572 1.18214,-5.2e-4 0,-0.54537 0.5507,-0.45493 1.36138,0.22356 0.92249,0.77207 5.21471,6.84909 6.54366,9.26464 0.57628,1.04747 1.24259,2.66126 1.48068,3.5862 0.55029,2.13779 0.90815,7.56635 0.98795,14.98704 0.0562,5.22237 0.009,5.97045 -0.45918,7.27604 -0.46094,1.2855 -0.66994,1.52868 -1.79215,2.08515 l -1.27037,0.62993 0.54276,0.57775 c 0.73692,0.78438 0.68378,1.23555 -0.25098,2.13111 -1.34845,1.2919 -1.13388,2.05323 1.19174,4.22838 1.85882,1.73855 1.98543,1.92758 1.98438,2.96262 -5.3e-4,0.64374 -0.17217,1.27663 -0.41059,1.51504 -0.36956,0.36956 -0.35432,0.48405 0.15641,1.17484 0.47911,0.64803 0.54695,1.0242 0.44252,2.4537 -0.1444,1.97649 -0.32481,3.1025 -0.52995,3.30764 -0.4974,0.4974 -3.03252,0.69785 -9.58139,0.75761 -4.07458,0.0372 -8.00364,0.0241 -8.73125,-0.0291 z"
       id="path857"
       inkscape:export-xdpi="400"
       inkscape:export-ydpi="400" />
    <path
       style="fill:#ffffff;fill-opacity:1;stroke:#000000;stroke-width:1;stroke-miterlimit:4;stroke-dasharray:none;stroke-opacity:1"
       d="m 131.61083,103.0722 c -6.86583,-0.62107 -8.01872,-1.0019 -8.94559,-2.95498 -0.63636,-1.340912 -0.61461,-2.085882 0.10254,-3.511992 0.25472,-0.50653 0.27494,-0.95088 0.0785,-1.72485 -0.34963,-1.37744 -0.12839,-1.88268 2.00457,-4.57772 2.01591,-2.547159 2.52665,-3.597619 2.52665,-5.196639 0,-1.500382 0.18592,-1.919432 1.04977,-2.366142 0.80191,-0.41469 1.45598,-1.95757 2.35735,-5.56069 0.59284,-2.36985 1.35538,-7.249 1.35538,-8.6725 v -0.93167 l -1.93586,-0.430686 c -2.26064,-0.502949 -3.09122,-1.001622 -3.09122,-1.855962 0,-0.733867 0.85996,-1.359805 2.21828,-1.61463 0.77445,-0.145286 0.94231,-0.27836 0.82346,-0.652825 -0.16398,-0.516649 0.4865,-1.319848 1.06889,-1.319848 0.20277,0 0.49183,-0.230129 0.64236,-0.511399 0.2206,-0.412197 0.17583,-0.542465 -0.23083,-0.671531 -0.6518,-0.206876 -0.9123,-0.898174 -0.51764,-1.373712 0.24483,-0.295 0.16918,-0.52292 -0.3621,-1.090946 -2.23364,-2.388121 -2.59032,-6.547235 -0.88157,-10.279637 0.77957,-1.702815 2.64554,-3.969848 4.09339,-4.973205 l 1.02654,-0.711398 -0.66523,-0.66524 c -0.5602,-0.560195 -0.64243,-0.835312 -0.52078,-1.742287 0.20449,-1.524627 0.90452,-2.118435 2.66995,-2.264839 3.1015,-0.2572 4.6582,0.610464 4.6582,2.596356 0,0.811418 -0.15929,1.232258 -0.6226,1.644939 l -0.62259,0.554558 1.69559,1.586141 c 2.71901,2.543497 3.84338,5.014791 3.87158,8.509493 0.0193,2.386716 -0.61777,4.255068 -1.9775,5.799804 -0.58659,0.666408 -0.93736,1.211654 -0.77947,1.211654 0.70885,0 0.0272,1.356952 -0.83268,1.657511 -0.41478,0.144989 0.48644,1.252905 1.01916,1.252905 0.40951,0 0.87001,0.795263 0.71283,1.231032 -0.0627,0.173882 0.46557,0.496168 1.22889,0.749705 1.60275,0.532347 2.08567,1.211956 1.49825,2.108472 -0.39077,0.596376 -1.30655,0.904748 -3.97401,1.338167 l -1.0315,0.167603 0.16278,2.824905 c 0.19235,3.33777 0.9649,7.36303 1.92629,10.03667 0.54731,1.52204 0.82234,1.9532 1.32668,2.07978 0.66325,0.16647 0.76132,0.41511 1.00699,2.553122 0.1879,1.63523 0.72248,2.64176 2.35134,4.42721 0.73018,0.800369 1.54602,1.812399 1.813,2.248959 0.5461,0.893 0.63813,2.53124 0.1893,3.36989 -0.23999,0.44842 -0.21248,0.61956 0.14115,0.87814 0.67922,0.49666 0.88315,2.9009 0.30064,3.54456 -0.25307,0.279642 -0.39792,0.609092 -0.32189,0.732122 0.23878,0.38635 -1.47522,1.35775 -3.12911,1.7734 -2.65632,0.66758 -5.86258,0.94877 -10.31181,0.90434 -2.33215,-0.0233 -4.65699,-0.08 -5.16631,-0.12611 z"
       id="path853"
       inkscape:connector-curvature="0"
       inkscape:export-xdpi="400"
       inkscape:export-ydpi="400" />
    <path
       style="fill:#000000;fill-opacity:1;stroke:#e9e9e9;stroke-width:0.5;stroke-miterlimit:4;stroke-dasharray:none;stroke-opacity:1;paint-order:markers fill stroke"
       d="m 15.915216,106.41471 c -6.2397208,-0.29464 -9.2634907,-0.90487 -10.2616007,-2.07091 -0.50785,-0.59331 -0.2008,-2.85571 0.48695,-3.58777 0.5336,-0.568 0.53882,-0.62665 0.11344,-1.275868 -0.90213,-1.37683 -0.4978,-2.83983 1.60729,-5.81574 1.0193899,-1.441084 1.1545099,-2.511164 0.51142,-4.050284 -0.42085,-1.00724 -0.34087,-1.25422 0.7124499,-2.20006 1.1284498,-1.0133 3.4218608,-6.53435 4.3977508,-10.58695 0.82644,-3.43197 1.37396,-8.38393 1.37396,-12.42662 v -3.64682 l -0.82682,-0.16536 c -0.45475,-0.091 -1.2126,-0.16537 -1.68411,-0.16537 -0.993321,0 -2.251571,-0.87977 -2.251571,-1.57431 0,-0.61708 0.43921,-0.96646 1.5875,-1.26281 0.662731,-0.17104 0.934091,-0.39328 0.954341,-0.78162 0.0444,-0.85179 0.33975,-1.14376 1.15692,-1.14376 0.63251,0 0.78694,-0.1358 0.93834,-0.82513 0.11179,-0.50897 0.0485,-1.07315 -0.16519,-1.47243 -0.25328,-0.47325 -0.27001,-0.76717 -0.0622,-1.0931 0.22703,-0.35614 -0.16123,-1.33653 -1.93045,-4.87463 -1.218051,-2.43585 -2.214641,-4.61025 -2.214641,-4.83198 0,-0.45235 2.244611,-1.5356 3.778001,-1.82326 0.71086,-0.13336 0.9845,-0.31944 0.9845,-0.66948 0,-0.65215 0.4969,-1.02258 1.74051,-1.29754 l 1.03762,-0.22942 -0.71305,-0.34089 c -1.091,-0.52158 -1.15894,-1.0886 -0.2299,-1.91869 0.44586,-0.39838 0.81065,-0.78553 0.81065,-0.86034 0,-0.0748 -0.65484,-0.13602 -1.4552,-0.13602 h -1.45521 l 0.004,-1.91823 c 0.002,-1.05503 0.0915,-2.05248 0.19844,-2.21656 0.10691,-0.16408 0.7004,-0.3829 1.31887,-0.48628 0.61846,-0.10337 1.12447,-0.2591 1.12447,-0.34607 0,-0.087 -0.2639,-0.43905 -0.58645,-0.78239 -0.77266,-0.82245 -0.41642,-1.40279 1.14192,-1.86031 2.01729,-0.59226 4.61196,-0.50717 7.58047,0.24858 1.26499,0.32205 1.46543,0.88527 0.59531,1.67271 -0.77579,0.70209 -0.67054,0.83912 0.79375,1.03337 l 1.32292,0.17549 v 2.23984 2.23985 l -1.65365,0.009 -1.65364,0.009 0.98909,0.80805 c 0.82152,0.67116 0.94366,0.89294 0.72095,1.30908 -0.14747,0.27557 -0.59257,0.6736 -0.98909,0.88453 l -0.72095,0.3835 1.13409,0.18598 c 1.09311,0.17927 1.85435,0.88385 1.52706,1.41342 -0.0778,0.12588 0.86911,0.5576 2.10424,0.95938 1.23513,0.40178 2.39042,0.9049 2.5673,1.11803 0.34293,0.4132 0.42386,0.23548 -3.06317,6.72685 -1.32797,2.47211 -1.47659,2.89307 -1.18584,3.35863 0.27725,0.44395 0.25728,0.61531 -0.12033,1.03256 -0.68038,0.75181 -0.17504,1.99061 0.9468,2.32101 0.70647,0.20806 0.84422,0.37266 0.80486,0.9617 -0.0401,0.59961 0.084,0.7386 0.79375,0.88934 1.03136,0.21904 1.76728,0.83434 1.76728,1.4776 0,0.7607 -1.17602,1.33715 -3.03186,1.48612 l -1.70882,0.13717 -0.18026,1.20207 c -0.24722,1.64859 0.0976,8.57833 0.59485,11.9564 0.76781,5.21546 3.69516,13.26046 5.09839,14.01144 0.66163,0.3541 0.68041,0.70584 0.12789,2.39507 -0.41147,1.25801 -0.40541,1.3302 0.22766,2.71301 0.35771,0.781344 1.02419,1.936644 1.48106,2.567334 0.950342,1.31191 1.115734,2.92385 0.404227,3.93967 -0.403897,0.576638 -0.389907,0.646978 0.264583,1.330118 0.752943,0.7859 0.82613,1.25368 0.423127,2.70449 -0.294084,1.0587 -0.977501,1.92695 -1.584177,2.01263 -0.21828,0.0308 -1.17078,0.18557 -2.11667,0.34386 -0.94588,0.15829 -3.92245,0.34671 -6.61458,0.41872 -2.69214,0.072 -5.13292,0.15609 -5.42396,0.18687 -0.29104,0.0308 -2.25557,-0.0256 -4.36563,-0.12521 z"
       id="path851"
       inkscape:connector-curvature="0"
       inkscape:export-xdpi="400"
       inkscape:export-ydpi="400" />
    <path
       inkscape:export-ydpi="400"
       inkscape:export-xdpi="400"
       id="path871"
       d="m 186.08985,203.61221 c -3.7358,-0.362 -4.49121,-0.62927 -4.96179,-1.7555 -0.57156,-1.36796 -0.51543,-3.07454 0.12006,-3.64964 0.47748,-0.43212 0.48516,-0.51435 0.10262,-1.09818 -0.7499,-1.14449 -0.27073,-2.34313 1.7516,-4.38156 1.76512,-1.77917 2.39215,-3.00393 2.39215,-4.67253 0,-0.29286 0.22994,-0.57356 0.53525,-0.6534 1.08197,-0.28295 2.61798,-4.79844 3.04329,-8.94652 l 0.1793,-1.74872 -1.60784,-0.18191 c -2.95518,-0.33434 -3.17189,-1.50577 -0.60889,-3.29139 l 1.6734,-1.16586 -0.92204,-0.76002 c -1.83819,-1.51519 -2.59428,-4.49591 -1.94678,-7.67474 0.77321,-3.79603 6.03213,-5.80598 10.04899,-3.84071 1.92194,0.94032 2.78666,2.30676 3.17316,5.01425 0.37767,2.64563 -0.17357,4.53102 -1.80038,6.15783 l -1.17057,1.17058 1.71301,1.08186 c 1.76205,1.11284 1.89029,1.32747 1.4636,2.44973 -0.21866,0.57514 -0.46326,0.6789 -1.98437,0.8418 -1.99829,0.214 -1.92541,0.0395 -1.44862,3.46753 0.45847,3.2963 1.47163,6.15635 2.52152,7.11801 0.69522,0.6368 0.8963,1.03107 0.8963,1.75746 0,1.10497 0.81809,2.42644 2.69071,4.34634 1.44828,1.48485 1.8959,2.91783 1.27426,4.07937 -0.27473,0.51334 -0.25812,0.66346 0.10257,0.92721 0.25304,0.18502 0.43038,0.6897 0.43038,1.2248 0,0.50055 0.11516,1.02526 0.25592,1.16602 0.29323,0.29323 0.065,1.43741 -0.28678,1.43741 -0.12855,0 -0.23373,0.28377 -0.23373,0.6306 0,0.42597 -0.19318,0.68712 -0.59531,0.80476 -0.98045,0.28683 -14.16347,0.4007 -16.80099,0.14513 z"
       style="fill:#000000;stroke:#f1f1f1;stroke-width:0.5;stroke-miterlimit:4;stroke-dasharray:none;stroke-opacity:1;fill-opacity:1" />
    <path
       inkscape:export-ydpi="400"
       inkscape:export-xdpi="400"
       inkscape:connector-curvature="0"
       id="path873"
       d="m 69.716458,101.08124 c -0.582083,-0.0468 -1.922317,-0.22231 -2.978298,-0.39012 -1.733476,-0.27548 -1.971196,-0.38801 -2.447396,-1.158519 -0.716711,-1.15966 -0.703992,-2.95014 0.02648,-3.7277 l 0.55391,-0.58961 -0.589425,-0.79724 c -0.903187,-1.22162 -0.640358,-2.96831 0.762833,-5.0696 1.1927,-1.78608 1.346893,-2.686 0.782812,-4.56872 -0.301577,-1.00659 -0.282336,-1.08656 0.39051,-1.62306 1.203073,-0.9593 3.143178,-6.53837 4.293472,-12.34654 0.752515,-3.79966 1.35695,-11.33666 1.083162,-13.50648 l -0.187494,-1.48593 -1.592435,-0.1444 c -1.744045,-0.15814 -2.611672,-0.70504 -2.611672,-1.64624 0,-0.65939 0.674597,-1.35446 1.453168,-1.49727 0.3458,-0.0634 0.573736,-0.36863 0.662617,-0.88721 0.113795,-0.66395 0.272984,-0.80379 0.994225,-0.87343 0.806701,-0.0779 0.858739,-0.14508 0.858739,-1.10886 0,-0.56428 -0.126201,-1.10396 -0.280445,-1.19928 -0.177186,-0.10951 -0.216503,-0.68511 -0.106785,-1.56327 0.226441,-1.81236 -0.391565,-4.23448 -1.657112,-6.49466 -2.316766,-4.13757 -2.312723,-4.07997 -0.312629,-4.45363 0.656209,-0.12259 2.333498,-0.87441 3.727309,-1.67071 2.391968,-1.36656 2.512566,-1.47669 2.148666,-1.96225 -0.541261,-0.72222 -0.295966,-2.66443 0.427937,-3.38834 0.4124,-0.4124 0.892503,-0.56567 1.771859,-0.56567 1.00363,0 1.317331,0.12921 1.868048,0.76946 0.532479,0.61904 0.640241,0.98109 0.551262,1.85208 -0.06083,0.59544 -0.186254,1.26122 -0.278718,1.4795 -0.223472,0.52755 4.469493,2.82321 6.22967,3.04737 1.13115,0.14405 1.256771,0.2279 1.256771,0.83887 0,0.37335 -0.462021,1.52692 -1.02671,2.56348 -1.658213,3.04386 -2.583389,6.86242 -1.87071,7.72114 0.253029,0.30489 0.259032,0.5513 0.0259,1.06297 -0.166915,0.36633 -0.303483,1.06964 -0.303483,1.56289 0,0.81842 0.07519,0.90408 0.859896,0.97974 0.756105,0.0729 0.869902,0.1867 0.942806,0.94281 0.06867,0.71219 0.193651,0.85989 0.727604,0.85989 0.723468,0 1.703027,0.84394 1.703027,1.46724 0,0.8103 -1.233699,1.70776 -2.347584,1.70776 -1.865971,0 -1.885995,0.0306 -1.883579,2.87258 0.0071,8.35623 3.578957,22.05459 6.356961,24.37951 0.729861,0.61082 0.769889,0.73221 0.522906,1.58575 -0.537501,1.85754 -0.171074,3.64192 1.011767,4.92695 0.988203,1.07358 1.366612,1.84727 1.366612,2.79413 0,1.09567 -0.468283,2.33483 -0.88234,2.33483 -0.147529,0 0.0204,0.30713 0.3732,0.6825 0.547875,0.58295 0.635728,0.92062 0.602321,2.3151 -0.05594,2.33501 -0.08419,2.48639 -0.533632,2.8594 -0.473602,0.393059 -0.172289,0.343629 -5.316651,0.872049 -3.621807,0.37202 -13.726763,0.51404 -17.129355,0.24074 z"
       style="fill:#000000;fill-opacity:1;stroke:#f1f1f1;stroke-width:0.5;stroke-miterlimit:4;stroke-dasharray:none;stroke-opacity:1" />
    <path
       inkscape:export-ydpi="400"
       inkscape:export-xdpi="400"
       id="path875"
       d="m 83.7622,203.35747 c -4.566577,-0.3734 -7.540625,-1.06082 -7.540625,-1.74294 0,-0.207 -0.09297,-0.37636 -0.206608,-0.37636 -0.340228,0 -0.392478,-3.69799 -0.05795,-4.10108 0.217112,-0.2616 0.222235,-0.5107 0.01834,-0.8917 -0.673293,-1.25805 -0.178633,-2.72726 1.436844,-4.26763 1.36308,-1.29972 1.719791,-2.11824 1.719791,-3.94631 0,-1.29675 0.09375,-1.6415 0.506455,-1.86237 1.073957,-0.57477 2.147546,-7.5814 2.130248,-13.90278 -0.0141,-5.14884 -0.403879,-8.5837 -1.041485,-9.17772 -0.295288,-0.27511 -0.536885,-0.79286 -0.536885,-1.15057 0,-0.37381 -0.400711,-1.09393 -0.942276,-1.69338 -0.645022,-0.71396 -0.97496,-1.36107 -1.045885,-2.05129 -0.05698,-0.55456 -0.224596,-1.90126 -0.372469,-2.99267 -0.427821,-3.15757 -0.371224,-4.70294 0.177818,-4.85544 0.254662,-0.0707 3.634518,-0.20817 7.510787,-0.30542 4.96615,-0.12459 7.10027,-0.0919 7.22551,0.11077 0.23212,0.37558 1.28138,0.36981 1.66032,-0.009 0.36777,-0.36777 8.68539,-0.20711 9.02513,0.17432 0.23122,0.25959 -0.11215,6.01039 -0.40225,6.73698 -0.0871,0.21828 -0.13445,0.70475 -0.10511,1.08103 0.0348,0.44589 -0.26339,1.06329 -0.85615,1.77278 -0.50023,0.59873 -0.98819,1.50802 -1.08436,2.02062 -0.0962,0.51261 -0.35374,1.03214 -0.57239,1.1545 -0.644323,0.36058 -1.027943,7.68619 -0.661093,12.6242 0.361343,4.86389 1.362773,9.6264 2.134813,10.15258 0.4097,0.27923 0.53261,0.65687 0.53261,1.63642 0,1.76769 0.32992,2.47715 1.98163,4.26119 1.56724,1.6928 2.01522,2.94072 1.47853,4.11864 -0.21646,0.47506 -0.22653,0.76543 -0.0333,0.95871 0.41622,0.41621 0.33271,3.36612 -0.11985,4.23385 -0.21661,0.41532 -0.333,0.85358 -0.25864,0.9739 0.15049,0.2435 -0.32297,0.60147 -0.93176,0.70448 -3.98502,0.67431 -15.76265,1.02125 -20.76979,0.61182 z"
       style="fill:#000000;stroke:#f1f1f1;stroke-width:0.5;stroke-miterlimit:4;stroke-dasharray:none;stroke-opacity:1;fill-opacity:1" />
    <path
       inkscape:export-ydpi="400"
       inkscape:export-xdpi="400"
       id="path877"
       d="m 157.84553,203.18947 c -2.00079,-0.14627 -6.03827,-0.92905 -6.44371,-1.24929 -1.01281,-0.79999 -1.20378,-4.26371 -0.30357,-5.50612 0.44295,-0.61132 0.45902,-0.74551 0.12276,-1.02459 -0.22391,-0.18583 -0.38694,-0.77626 -0.38694,-1.40136 0,-1.0077 0.14221,-1.21426 2.11793,-3.07645 1.4301,-1.34793 2.11752,-2.18932 2.11667,-2.59078 -8e-4,-0.327 -0.42068,-1.0588 -0.93331,-1.62621 l -0.93204,-1.03167 0.70038,-0.83236 c 0.38521,-0.45779 0.6558,-0.86592 0.60132,-0.90694 -0.0545,-0.041 -0.75392,-0.34729 -1.55428,-0.68061 -0.80036,-0.3333 -1.60404,-0.72601 -1.78594,-0.87267 -0.66762,-0.53829 -0.3024,-1.54992 1.3839,-3.83328 2.61422,-3.5398 6.33287,-8.49289 7.67017,-10.21631 0.66351,-0.8551 1.19854,-1.8295 1.19854,-2.18281 0,-0.56842 -0.12298,-0.64242 -1.12448,-0.67668 -2.06293,-0.0706 -2.97192,0.0821 -3.52278,0.59159 -0.57989,0.53635 -1.11729,0.60907 -2.48274,0.33598 -0.61027,-0.12206 -1.13577,-0.55284 -1.88515,-1.5454 -0.9699,-1.28462 -1.03902,-1.4947 -1.03902,-3.15815 v -1.78198 l 2.86193,-2.82418 c 1.57407,-1.55331 3.23935,-3.37911 3.70064,-4.05735 1.31527,-1.93387 3.43825,-3.66163 4.49922,-3.66163 0.87109,0 0.88375,-0.017 0.83991,-1.12448 -0.0955,-2.41293 -0.0208,-2.84427 0.49256,-2.84427 0.26841,0 0.82653,0.29088 1.24027,0.64639 0.77497,0.66591 1.18214,0.66572 1.18214,-5.2e-4 0,-0.54537 0.5507,-0.45493 1.36138,0.22356 0.92249,0.77207 5.21471,6.84909 6.54366,9.26464 0.57628,1.04747 1.24259,2.66126 1.48068,3.5862 0.55029,2.13779 0.90815,7.56635 0.98795,14.98704 0.0562,5.22237 0.009,5.97045 -0.45918,7.27604 -0.46094,1.2855 -0.66994,1.52868 -1.79215,2.08515 l -1.27037,0.62993 0.54276,0.57775 c 0.73692,0.78438 0.68378,1.23555 -0.25098,2.13111 -1.34845,1.2919 -1.13388,2.05323 1.19174,4.22838 1.85882,1.73855 1.98543,1.92758 1.98438,2.96262 -5.3e-4,0.64374 -0.17217,1.27663 -0.41059,1.51504 -0.36956,0.36956 -0.35432,0.48405 0.15641,1.17484 0.47911,0.64803 0.54695,1.0242 0.44252,2.4537 -0.1444,1.97649 -0.32481,3.1025 -0.52995,3.30764 -0.4974,0.4974 -3.03252,0.69785 -9.58139,0.75761 -4.07458,0.0372 -8.00364,0.0241 -8.73125,-0.0291 z"
       style="fill:#000000;stroke:#f1f1f1;stroke-width:0.5;stroke-miterlimit:4;stroke-dasharray:none;stroke-opacity:1;fill-opacity:1" />
    <path
       inkscape:export-ydpi="400"
       inkscape:export-xdpi="400"
       inkscape:connector-curvature="0"
       id="path879"
       d="m 131.61083,103.0722 c -6.86583,-0.62107 -8.01872,-1.0019 -8.94559,-2.95498 -0.63636,-1.340912 -0.61461,-2.085882 0.10254,-3.511992 0.25472,-0.50653 0.27494,-0.95088 0.0785,-1.72485 -0.34963,-1.37744 -0.12839,-1.88268 2.00457,-4.57772 2.01591,-2.547159 2.52665,-3.597619 2.52665,-5.196639 0,-1.500382 0.18592,-1.919432 1.04977,-2.366142 0.80191,-0.41469 1.45598,-1.95757 2.35735,-5.56069 0.59284,-2.36985 1.35538,-7.249 1.35538,-8.6725 v -0.93167 l -1.93586,-0.430686 c -2.26064,-0.502949 -3.09122,-1.001622 -3.09122,-1.855962 0,-0.733867 0.85996,-1.359805 2.21828,-1.61463 0.77445,-0.145286 0.94231,-0.27836 0.82346,-0.652825 -0.16398,-0.516649 0.4865,-1.319848 1.06889,-1.319848 0.20277,0 0.49183,-0.230129 0.64236,-0.511399 0.2206,-0.412197 0.17583,-0.542465 -0.23083,-0.671531 -0.6518,-0.206876 -0.9123,-0.898174 -0.51764,-1.373712 0.24483,-0.295 0.16918,-0.52292 -0.3621,-1.090946 -2.23364,-2.388121 -2.59032,-6.547235 -0.88157,-10.279637 0.77957,-1.702815 2.64554,-3.969848 4.09339,-4.973205 l 1.02654,-0.711398 -0.66523,-0.66524 c -0.5602,-0.560195 -0.64243,-0.835312 -0.52078,-1.742287 0.20449,-1.524627 0.90452,-2.118435 2.66995,-2.264839 3.1015,-0.2572 4.6582,0.610464 4.6582,2.596356 0,0.811418 -0.15929,1.232258 -0.6226,1.644939 l -0.62259,0.554558 1.69559,1.586141 c 2.71901,2.543497 3.84338,5.014791 3.87158,8.509493 0.0193,2.386716 -0.61777,4.255068 -1.9775,5.799804 -0.58659,0.666408 -0.93736,1.211654 -0.77947,1.211654 0.70885,0 0.0272,1.356952 -0.83268,1.657511 -0.41478,0.144989 0.48644,1.252905 1.01916,1.252905 0.40951,0 0.87001,0.795263 0.71283,1.231032 -0.0627,0.173882 0.46557,0.496168 1.22889,0.749705 1.60275,0.532347 2.08567,1.211956 1.49825,2.108472 -0.39077,0.596376 -1.30655,0.904748 -3.97401,1.338167 l -1.0315,0.167603 0.16278,2.824905 c 0.19235,3.33777 0.9649,7.36303 1.92629,10.03667 0.54731,1.52204 0.82234,1.9532 1.32668,2.07978 0.66325,0.16647 0.76132,0.41511 1.00699,2.553122 0.1879,1.63523 0.72248,2.64176 2.35134,4.42721 0.73018,0.800369 1.54602,1.812399 1.813,2.248959 0.5461,0.893 0.63813,2.53124 0.1893,3.36989 -0.23999,0.44842 -0.21248,0.61956 0.14115,0.87814 0.67922,0.49666 0.88315,2.9009 0.30064,3.54456 -0.25307,0.279642 -0.39792,0.609092 -0.32189,0.732122 0.23878,0.38635 -1.47522,1.35775 -3.12911,1.7734 -2.65632,0.66758 -5.86258,0.94877 -10.31181,0.90434 -2.33215,-0.0233 -4.65699,-0.08 -5.16631,-0.12611 z"
       style="fill:#000000;fill-opacity:1;stroke:#f1f1f1;stroke-width:0.5;stroke-miterlimit:4;stroke-dasharray:none;stroke-opacity:1" />
  </g>
</svg>
